<svg width="24" height="24" viewBox="0 0 24 24" fill="none" xmlns="http://www.w3.org/2000/svg">
<path d="M22.302 1.70023C21.9404 1.33877 21.4537 1.13017 20.9426 1.11761C20.4315 1.10504 19.9351 1.28947 19.5563 1.63273L15.5887 5.22598L13.4513 7.29223L15.8685 3.57073C16.5308 2.55073 15.8363 1.19698 14.6213 1.13923C14.2917 1.12362 13.9657 1.21186 13.689 1.3915C13.4123 1.57115 13.199 1.83313 13.0792 2.14048L10.6778 8.29498C9.91631 8.16818 9.13442 8.30623 8.46243 8.68611C7.79045 9.06599 7.269 9.66474 6.98503 10.3825C6.70105 11.1003 6.67171 11.8938 6.9019 12.6306C7.1321 13.3674 7.60791 14.003 8.25 14.4315V17.625C8.25 19.3027 7.56 20.3152 6.7185 20.9205C5.8575 21.54 4.815 21.75 4.125 21.75C4.02554 21.75 3.93016 21.7895 3.85984 21.8598C3.78951 21.9301 3.75 22.0255 3.75 22.125C3.75 22.2244 3.78951 22.3198 3.85984 22.3901C3.93016 22.4605 4.02554 22.5 4.125 22.5C4.935 22.5 6.14175 22.26 7.1565 21.5295C8.19075 20.7847 9 19.5472 9 17.625V14.808C9.2385 14.8927 9.48975 14.9505 9.75 14.9797V22.125C9.75 22.2244 9.78951 22.3198 9.85983 22.3901C9.93016 22.4605 10.0255 22.5 10.125 22.5C10.2245 22.5 10.3198 22.4605 10.3902 22.3901C10.4605 22.3198 10.5 22.2244 10.5 22.125V14.9797C10.7558 14.9512 11.0075 14.8933 11.25 14.8072V17.625C11.25 19.4085 12.069 20.6085 13.089 21.3667C14.094 22.1137 15.2895 22.4317 16.0935 22.4992C16.1927 22.5076 16.2911 22.4762 16.3671 22.412C16.4431 22.3478 16.4905 22.256 16.4989 22.1569C16.5072 22.0577 16.4759 21.9593 16.4116 21.8833C16.3474 21.8072 16.2557 21.7598 16.1565 21.7515C15.4605 21.693 14.406 21.4117 13.536 20.7645C12.681 20.13 12 19.1415 12 17.625V14.4315C12.4617 14.1233 12.8402 13.7059 13.1019 13.2163C13.3636 12.7267 13.5003 12.1801 13.5 11.625C13.5 11.0962 13.3785 10.596 13.1625 10.1512L17.5995 7.51498L17.607 7.51048L21.9487 4.79848C22.2028 4.63963 22.4177 4.42551 22.5776 4.17208C22.7374 3.91865 22.838 3.63242 22.8719 3.33472C22.9057 3.03702 22.872 2.73552 22.7732 2.45265C22.6744 2.16979 22.5131 1.91285 22.3013 1.70098M20.0588 2.18923C20.1865 2.07356 20.337 1.98575 20.5006 1.93139C20.6641 1.87703 20.8372 1.85731 21.0088 1.87348C21.1804 1.88966 21.3468 1.94138 21.4973 2.02534C21.6478 2.10931 21.7792 2.22368 21.8831 2.36119C21.9871 2.49871 22.0612 2.65634 22.1009 2.82407C22.1406 2.99181 22.1449 3.16596 22.1136 3.33546C22.0823 3.50496 22.0161 3.66609 21.9192 3.8086C21.8222 3.95111 21.6967 4.07188 21.5505 4.16323L17.2125 6.87223L11.7473 10.1197C11.7368 10.1277 11.7236 10.1312 11.7106 10.1294C11.6976 10.1277 11.6858 10.1208 11.6779 10.1104C11.6699 10.0999 11.6664 10.0867 11.6682 10.0737C11.67 10.0607 11.6768 10.0489 11.6873 10.041L16.101 5.77348L20.0588 2.18923ZM14.5853 1.88923C14.7302 1.89615 14.8708 1.9412 14.9928 2.01984C15.1149 2.09847 15.214 2.20791 15.2802 2.33709C15.3463 2.46628 15.3773 2.61064 15.3698 2.75561C15.3624 2.90057 15.3168 3.041 15.2377 3.16273L11.6865 8.63323C11.5936 8.58482 11.4985 8.54078 11.4015 8.50123L13.7775 2.41348C13.8402 2.25238 13.9518 2.11503 14.0968 2.02083C14.2417 1.92663 14.4126 1.88033 14.5853 1.88848" fill="black"/>
<path d="M12.666 14.8747C13.1599 14.4892 13.5593 13.9961 13.8337 13.433C14.1082 12.8698 14.2506 12.2515 14.25 11.625C14.2505 10.9838 14.1016 10.3513 13.815 9.77771C14.3247 9.75664 14.8296 9.88351 15.2687 10.143C15.7079 10.4025 16.0626 10.7836 16.29 11.2402L20.922 20.5252C21.0094 20.7006 21.0322 20.9011 20.9863 21.0916C20.9404 21.2821 20.8288 21.4503 20.6711 21.5666C20.5134 21.6829 20.3197 21.7399 20.1242 21.7275C19.9286 21.715 19.7437 21.634 19.602 21.4987L12.666 14.8747ZM5.71651 15.723C6.06278 15.7897 6.42149 15.7323 6.72965 15.5608C7.03781 15.3894 7.27571 15.1149 7.40158 14.7854C7.52745 14.456 7.53323 14.0928 7.41791 13.7595C7.30259 13.4263 7.07354 13.1443 6.77099 12.9631C6.46844 12.782 6.11174 12.7132 5.76352 12.7689C5.4153 12.8246 5.09783 13.0012 4.86687 13.2676C4.6359 13.5341 4.50621 13.8735 4.50057 14.2261C4.49493 14.5787 4.61369 14.922 4.83601 15.1957L1.52401 22.1235C1.49637 22.1843 1.49316 22.2535 1.51502 22.3167C1.53688 22.3799 1.58216 22.4322 1.64151 22.463C1.70086 22.4938 1.76975 22.5006 1.83399 22.4821C1.89823 22.4636 1.95291 22.4211 1.98676 22.3635L5.71651 15.723ZM6.09376 14.625C6.09376 14.7493 6.04437 14.8685 5.95646 14.9564C5.86856 15.0443 5.74933 15.0937 5.62501 15.0937C5.50069 15.0937 5.38146 15.0443 5.29355 14.9564C5.20564 14.8685 5.15626 14.7493 5.15626 14.625C5.15626 14.5006 5.20564 14.3814 5.29355 14.2935C5.38146 14.2056 5.50069 14.1562 5.62501 14.1562C5.74933 14.1562 5.86856 14.2056 5.95646 14.2935C6.04437 14.3814 6.09376 14.5006 6.09376 14.625Z" fill="black"/>
</svg>
