<svg width="24" height="24" viewBox="0 0 24 24" fill="none" xmlns="http://www.w3.org/2000/svg">
<path fill-rule="evenodd" clip-rule="evenodd" d="M14.7955 2.3375C14.395 2.1085 13.9455 2 13.462 2H10.838C9.926 2 9.0035 2.425 8.4485 3.1935C8.43016 3.21674 8.41216 3.24024 8.3945 3.264L7.226 4.779L6.8205 5.3195L6.8195 5.3205C6.20357 6.13726 5.87049 7.13245 5.87067 8.15542C5.87085 9.17839 6.20428 10.1735 6.8205 10.99L6.8235 10.994L11.712 17.195L15 21.3875C15.0846 21.4953 15.1904 21.5846 15.3109 21.6499C15.4315 21.7151 15.5641 21.7548 15.7006 21.7666C15.8372 21.7785 15.9747 21.7621 16.1046 21.7185C16.2346 21.675 16.3542 21.6052 16.456 21.5135L18.489 19.6825C18.6767 19.5134 18.7935 19.2796 18.8158 19.0279C18.8382 18.7763 18.7645 18.5255 18.6095 18.326L14.8945 13.5445L12.4985 10.5155L9.787 7.0135C10.0942 6.84142 10.4409 6.75217 10.793 6.7545H13.4165C13.748 6.7545 14.088 6.851 14.387 7.0135L12.7195 9.1675L13.286 9.8995L15.506 12.7055C15.4967 12.6374 15.492 12.5687 15.492 12.5V11C15.0956 10.9979 14.7161 10.8389 14.4365 10.5578C14.1569 10.2768 14 9.89644 14 9.5C14 7.854 15.325 6.5295 16.9535 6.5005L16.992 6.5H17.008L17.0465 6.5005C17.429 6.5075 17.795 6.5855 18.1305 6.7225C17.9701 6.20035 17.7193 5.71042 17.3895 5.275L16.9835 4.733L16.979 4.728L15.8135 3.2165L15.808 3.209L15.814 3.2045C15.5265 2.8025 15.138 2.533 14.7955 2.3375ZM10.793 5.7545C10.2315 5.7545 9.6595 5.9045 9.1725 6.2165C8.93383 5.86806 8.8056 5.45584 8.8045 5.0335C8.8045 4.626 8.933 4.2175 9.1915 3.868L9.249 3.793L9.254 3.786C9.605 3.295 10.217 3 10.8385 3H13.4625C13.7925 3 14.0675 3.0725 14.3 3.2055C14.5755 3.363 14.81 3.5355 14.974 3.7495L14.9665 3.755L15.0165 3.82C15.271 4.16809 15.4073 4.58859 15.4053 5.01981C15.4033 5.45103 15.2632 5.87026 15.0055 6.216C14.5385 5.931 13.983 5.7545 13.417 5.7545H10.793Z" fill="black"/>
<path d="M18 9.5C17.999 9.23511 17.8933 8.98137 17.706 8.79406C17.5187 8.60675 17.2649 8.50105 17 8.5C16.4445 8.5045 16 8.953 16 9.5C16 9.63261 15.9473 9.75979 15.8536 9.85355C15.7598 9.94732 15.6326 10 15.5 10C15.3674 10 15.2402 9.94732 15.1465 9.85355C15.0527 9.75979 15 9.63261 15 9.5C15.0011 8.97127 15.211 8.46438 15.5841 8.08976C15.9573 7.71515 16.4633 7.50317 16.992 7.5H17.024C18.115 7.5175 19 8.404 19 9.5C18.9995 9.94454 18.8509 10.3762 18.5779 10.727C18.3049 11.0779 17.9228 11.3278 17.492 11.4375V12.5C17.492 12.6326 17.4393 12.7598 17.3456 12.8536C17.2518 12.9473 17.1246 13 16.992 13C16.8594 13 16.7322 12.9473 16.6385 12.8536C16.5447 12.7598 16.492 12.6326 16.492 12.5V11C16.492 10.8674 16.5447 10.7402 16.6385 10.6464C16.7322 10.5527 16.8594 10.5 16.992 10.5C17.551 10.5 18 10.05 18 9.5ZM10.728 17.966L8.28353 14.864L5.41853 18.53C5.33686 18.6345 5.27678 18.7541 5.2418 18.882C5.20681 19.0099 5.19761 19.1435 5.21473 19.275C5.23185 19.4065 5.27496 19.5333 5.34153 19.648C5.40811 19.7626 5.49683 19.8629 5.60253 19.943L7.79203 21.6015C8.00111 21.7598 8.26401 21.8297 8.52411 21.796C8.7842 21.7623 9.02066 21.6278 9.18253 21.4215L11.3105 18.7085L10.7305 17.9685L10.728 17.966ZM17.5 14C17.5 14.1326 17.4473 14.2598 17.3536 14.3536C17.2598 14.4473 17.1326 14.5 17 14.5C16.8674 14.5 16.7402 14.4473 16.6465 14.3536C16.5527 14.2598 16.5 14.1326 16.5 14C16.5 13.8674 16.5527 13.7402 16.6465 13.6464C16.7402 13.5527 16.8674 13.5 17 13.5C17.1326 13.5 17.2598 13.5527 17.3536 13.6464C17.4473 13.7402 17.5 13.8674 17.5 14Z" fill="black"/>
</svg>
