<svg width="159" height="159" viewBox="0 0 159 159" fill="none" xmlns="http://www.w3.org/2000/svg">
<path d="M79.4999 17.4039L84.9748 71.9645L138.557 60.3112L88.3584 82.3783L115.999 129.737L79.4999 88.8144L43.0007 129.737L70.6414 82.3783L20.443 60.3112L74.025 71.9645L79.4999 17.4039Z" fill="#3072B4"/>
<path d="M91.3827 35.1534L84.852 75.1661L125.348 77.0972L85.2757 83.2507L95.9531 122.361L77.7177 86.1519L43.8206 108.393L72.6229 79.8604L40.9959 54.4951L77.0321 73.0707L91.3827 35.1534Z" fill="#3072B4"/>
<path d="M106.941 27.4414L87.4199 75.602L137.491 89.5114L85.6546 85.8278L87.8986 137.746L75.3837 87.3088L26.7 105.487L70.8014 77.9983L38.4691 37.3146L78.2401 70.7631L106.941 27.4414Z" fill="#3072B4"/>
<path d="M111.964 47.0361L86.3019 78.4227L120.407 100.343L82.6265 85.636L72.318 124.846L74.6304 84.3696L34.1543 86.682L73.364 76.3735L58.6569 38.5931L80.5773 72.6981L111.964 47.0361Z" fill="#3072B4"/>
<path d="M119.257 56.5423L86.3456 80.2176L113.615 110.218L80.9285 86.2339L60.8231 121.439L73.5327 82.9411L33.8373 74.6988L74.3789 74.8897L69.9513 34.5901L82.2978 73.2065L119.257 56.5423Z" fill="#3072B4"/>
<circle cx="79.2976" cy="79.2977" r="18.6086" fill="#3072B4"/>
</svg>
