<svg width="40" height="40" viewBox="0 0 40 40" fill="none" xmlns="http://www.w3.org/2000/svg">
<path d="M34.2689 10.0875C33.6166 8.93741 32.5659 8.06589 31.3151 7.6375C30.0039 7.1875 28.8789 6.325 28.1626 5.1375C27.683 4.33554 27.0042 3.67124 26.192 3.2091C25.3799 2.74695 24.462 2.50268 23.5276 2.5C22.7726 2.5 22.0564 2.6625 21.4014 2.9375C20.5114 3.325 19.5101 3.325 18.6201 2.9375C17.9433 2.65269 17.2169 2.50402 16.4826 2.5C14.5414 2.5 12.8476 3.525 11.8826 5.0625C11.1324 6.26597 9.99508 7.17845 8.6576 7.65C7.35189 8.10963 6.26937 9.04785 5.62885 10.275C5.16509 11.1668 4.95126 12.1675 5.01002 13.171C5.06877 14.1745 5.39793 15.1434 5.9626 15.975C6.37135 16.575 6.59385 17.2875 6.59385 18.0125V19.4325C7.26135 18.9613 6.65635 20.3638 6.5626 20.7725V27.4825C6.5626 29.5637 7.8026 31.4175 9.6876 32.1875H30.3126C32.1976 31.4175 33.4376 29.5625 33.4376 27.4825V21.3975C33.2739 20.7638 32.2976 18.66 33.3914 19.4212V18.0125C33.3914 17.2875 33.6139 16.575 34.0214 15.975C34.614 15.117 34.9517 14.1088 34.9955 13.067C35.0393 12.0252 34.7874 10.9922 34.2689 10.0875Z" fill="black"/>
<path d="M12.5 22.5C12.5 22.9925 12.403 23.4801 12.2145 23.9351C12.0261 24.39 11.7499 24.8034 11.4017 25.1517C11.0534 25.4999 10.64 25.7761 10.1851 25.9645C9.73009 26.153 9.24246 26.25 8.75 26.25C8.25754 26.25 7.76991 26.153 7.31494 25.9645C6.85997 25.7761 6.44657 25.4999 6.09835 25.1517C5.75013 24.8034 5.47391 24.39 5.28545 23.9351C5.097 23.4801 5 22.9925 5 22.5C5 21.5054 5.39509 20.5516 6.09835 19.8483C6.80161 19.1451 7.75544 18.75 8.75 18.75C9.74456 18.75 10.6984 19.1451 11.4017 19.8483C12.1049 20.5516 12.5 21.5054 12.5 22.5ZM35 22.5C35 22.9925 34.903 23.4801 34.7145 23.9351C34.5261 24.39 34.2499 24.8034 33.9017 25.1517C33.5534 25.4999 33.14 25.7761 32.6851 25.9645C32.2301 26.153 31.7425 26.25 31.25 26.25C30.7575 26.25 30.2699 26.153 29.8149 25.9645C29.36 25.7761 28.9466 25.4999 28.5983 25.1517C28.2501 24.8034 27.9739 24.39 27.7855 23.9351C27.597 23.4801 27.5 22.9925 27.5 22.5C27.5 21.5054 27.8951 20.5516 28.5983 19.8483C29.3016 19.1451 30.2554 18.75 31.25 18.75C32.2446 18.75 33.1984 19.1451 33.9017 19.8483C34.6049 20.5516 35 21.5054 35 22.5Z" fill="#4E3233"/>
<path d="M8.05127 18.8012L8.75502 29.5625C9.04342 31.7598 10.1216 33.7771 11.7883 35.2377C13.4551 36.6983 15.5964 37.5024 17.8125 37.5H22.2088C24.4247 37.5021 26.5657 36.6979 28.2322 35.2373C29.8986 33.7767 30.9766 31.7596 31.265 29.5625L31.9375 18.8187C31.9171 18.8149 31.8967 18.8111 31.8763 18.8075L32.02 16.4125C31.995 14.625 30.5863 13.15 28.8075 13.075H25.5438C24.4513 13.0734 23.3827 12.7549 22.4677 12.1581C21.5527 11.5612 20.8305 10.7117 20.3888 9.71249C20.2745 9.4254 20.0768 9.1791 19.8213 9.00533C19.5657 8.83157 19.264 8.73828 18.955 8.73749H15.9875C11.6863 8.73749 8.12502 12.2625 8.12502 16.6125V18.79C8.10039 18.7939 8.07581 18.7968 8.05127 18.8012Z" fill="#573739"/>
<path d="M19.1087 21.9087L17.8712 25.8712C17.8125 26.0603 17.7993 26.2605 17.8327 26.4556C17.8661 26.6507 17.9451 26.8352 18.0633 26.994C18.1815 27.1527 18.3355 27.2813 18.5128 27.3693C18.6902 27.4572 18.8858 27.502 19.0837 27.5H20.9162C21.7762 27.5 22.3825 26.6725 22.1287 25.87L20.8912 21.9075C20.625 21.0312 19.3875 21.0312 19.1087 21.9075" fill="#3D2123"/>
<path d="M20 29.8687C18.878 29.8761 17.7707 29.6137 16.7712 29.1037C16.4525 28.9412 16.1087 29.3012 16.31 29.5912C16.7139 30.1995 17.2625 30.6979 17.9065 31.042C18.5505 31.386 19.2698 31.5649 20 31.5625C20.7301 31.5649 21.4494 31.386 22.0934 31.042C22.7374 30.6979 23.286 30.1995 23.69 29.5912C23.89 29.29 23.5475 28.9412 23.2287 29.1037C22.2298 29.615 21.1221 29.8775 20 29.8687Z" fill="#290118"/>
<path d="M11.2689 21.7088C11.4495 20.9913 11.869 20.3567 12.4582 19.9092C13.0474 19.4618 13.7714 19.2281 14.511 19.2468C15.2506 19.2654 15.9619 19.5351 16.5279 20.0117C17.0938 20.4882 17.4808 21.1431 17.6251 21.8688C17.6393 21.9463 17.6362 22.026 17.616 22.1022C17.5958 22.1784 17.5589 22.2492 17.5082 22.3095C17.4574 22.3698 17.394 22.4182 17.3223 22.4511C17.2507 22.4841 17.1727 22.5007 17.0939 22.5H11.8976C11.8001 22.5011 11.7037 22.4798 11.6157 22.4379C11.5276 22.396 11.4503 22.3345 11.3897 22.2582C11.329 22.1819 11.2866 22.0927 11.2657 21.9975C11.2447 21.9022 11.2458 21.8035 11.2689 21.7088ZM28.7314 21.7088C28.5514 21.007 28.1436 20.3848 27.572 19.9398C27.0003 19.4949 26.2971 19.2522 25.5726 19.25C24.8187 19.2482 24.0875 19.5086 23.5044 19.9865C22.9213 20.4645 22.5225 21.1303 22.3764 21.87C22.3624 21.9474 22.3657 22.0268 22.3859 22.1028C22.4061 22.1787 22.4429 22.2493 22.4935 22.3094C22.5441 22.3696 22.6073 22.4178 22.6787 22.4508C22.75 22.4837 22.8278 22.5005 22.9064 22.5H28.1026C28.2001 22.5011 28.2966 22.4798 28.3846 22.4379C28.4726 22.396 28.5499 22.3345 28.6106 22.2582C28.6712 22.1819 28.7136 22.0927 28.7346 21.9975C28.7555 21.9022 28.7544 21.8035 28.7314 21.7088Z" fill="white"/>
<path d="M12.8238 21.9462C12.8238 21.6495 12.8873 21.3562 13.0101 21.0861C13.1328 20.8159 13.3119 20.5752 13.5354 20.3799C13.7589 20.1847 14.0216 20.0396 14.3058 19.9543C14.59 19.869 14.8891 19.8455 15.1832 19.8853C15.4772 19.9252 15.7593 20.0275 16.0105 20.1854C16.2618 20.3433 16.4763 20.5531 16.6398 20.8008C16.8032 21.0484 16.9118 21.3282 16.9582 21.6213C17.0046 21.9143 16.9877 22.214 16.9088 22.5H12.8975C12.8476 22.3196 12.8236 22.1334 12.8238 21.9462ZM27.1763 21.9462C27.1763 20.7887 26.2388 19.865 25.0913 19.865C24.8179 19.8635 24.5469 19.9164 24.2942 20.0205C24.0414 20.1247 23.8118 20.278 23.6189 20.4717C23.4259 20.6653 23.2734 20.8954 23.1701 21.1486C23.0669 21.4017 23.015 21.6729 23.0175 21.9462C23.0175 22.1425 23.0425 22.3275 23.0925 22.5H27.1025C27.1525 22.315 27.1775 22.1425 27.1775 21.9462" fill="#7D4533"/>
<path d="M14.9087 20.7637C15.113 20.7632 15.3139 20.8155 15.4919 20.9156C15.67 21.0157 15.8191 21.1601 15.9248 21.3349C16.0305 21.5097 16.0891 21.7088 16.0951 21.913C16.101 22.1171 16.0541 22.3194 15.9587 22.5H13.86C13.7647 22.3194 13.7177 22.1171 13.7236 21.913C13.7296 21.7088 13.7883 21.5097 13.894 21.3349C13.9997 21.1601 14.1488 21.0157 14.3268 20.9156C14.5048 20.8155 14.7058 20.7632 14.91 20.7637M25.0787 20.7637C24.8745 20.7632 24.6736 20.8155 24.4956 20.9156C24.3175 21.0157 24.1684 21.1601 24.0627 21.3349C23.957 21.5097 23.8984 21.7088 23.8924 21.913C23.8864 22.1171 23.9334 22.3194 24.0287 22.5H26.1275C26.2228 22.3194 26.2698 22.1171 26.2638 21.913C26.2579 21.7088 26.1992 21.5097 26.0935 21.3349C25.9878 21.1601 25.8387 21.0157 25.6607 20.9156C25.4826 20.8155 25.283 20.7632 25.0787 20.7637Z" fill="black"/>
<path d="M14.5625 21.15C14.5625 21.3575 14.3975 21.525 14.1937 21.525C14.1448 21.5247 14.0964 21.5147 14.0514 21.4957C14.0063 21.4767 13.9654 21.4489 13.9311 21.4141C13.8967 21.3793 13.8696 21.3381 13.8511 21.2927C13.8327 21.2474 13.8234 21.1989 13.8237 21.15C13.8237 20.9425 13.9887 20.775 14.1937 20.775C14.3975 20.775 14.5637 20.9425 14.5637 21.15M24.8075 21.15C24.8075 21.3575 24.6412 21.525 24.4362 21.525C24.3873 21.5247 24.3389 21.5147 24.2939 21.4957C24.2488 21.4767 24.2079 21.4489 24.1736 21.4141C24.1392 21.3793 24.1121 21.3381 24.0936 21.2927C24.0752 21.2474 24.0659 21.1989 24.0662 21.15C24.0662 20.9425 24.2325 20.775 24.4362 20.775C24.6412 20.775 24.8075 20.9425 24.8075 21.15Z" fill="white"/>
<path d="M27.0975 15.2163C27.8162 15.4413 28.2912 15.8188 28.7 16.175C28.8292 16.2877 28.9085 16.4472 28.9202 16.6183C28.9319 16.7894 28.8752 16.9582 28.7625 17.0875C28.6497 17.2168 28.4903 17.296 28.3192 17.3077C28.148 17.3195 27.9792 17.2627 27.85 17.15C27.4837 16.83 27.1712 16.5938 26.7087 16.4488C26.2362 16.3 25.55 16.2288 24.4287 16.3663C24.3444 16.3766 24.2589 16.3702 24.1771 16.3475C24.0952 16.3248 24.0187 16.2862 23.9518 16.2339C23.8849 16.1817 23.8289 16.1167 23.7871 16.0428C23.7453 15.9689 23.7184 15.8874 23.7081 15.8031C23.6977 15.7188 23.7041 15.6333 23.7268 15.5515C23.7495 15.4697 23.7881 15.3931 23.8404 15.3262C23.8927 15.2593 23.9576 15.2033 24.0316 15.1615C24.1055 15.1197 24.1869 15.0928 24.2712 15.0825C25.5 14.9325 26.39 14.9925 27.0975 15.2163ZM12.945 15.4838C12.5625 15.6338 12.2612 15.795 12.0512 15.9213L11.7037 16.1513C11.5681 16.2562 11.4798 16.4107 11.4581 16.5807C11.4364 16.7508 11.4832 16.9225 11.5881 17.0581C11.693 17.1937 11.8475 17.2821 12.0176 17.3038C12.1876 17.3254 12.3594 17.2787 12.495 17.1738L12.5012 17.1688L12.5387 17.1413C12.8148 16.9599 13.1089 16.8074 13.4162 16.6863C14.2196 16.3701 15.0894 16.2601 15.9462 16.3663C16.0305 16.3766 16.116 16.3702 16.1978 16.3475C16.2797 16.3248 16.3562 16.2862 16.4231 16.2339C16.4901 16.1817 16.546 16.1167 16.5878 16.0428C16.6296 15.9689 16.6565 15.8874 16.6668 15.8031C16.6772 15.7188 16.6708 15.6333 16.6481 15.5515C16.6254 15.4697 16.5868 15.3931 16.5345 15.3262C16.4822 15.2593 16.4173 15.2033 16.3433 15.1615C16.2694 15.1197 16.188 15.0928 16.1037 15.0825C15.0338 14.9508 13.9479 15.0887 12.945 15.4838Z" fill="black"/>
</svg>
